<svg width="20" height="20" viewBox="0 0 20 20" fill="none" xmlns="http://www.w3.org/2000/svg">
<path d="M5.58934 4.41058C5.2639 4.08514 4.73626 4.08514 4.41083 4.41058C4.08539 4.73602 4.08539 5.26366 4.41083 5.58909L8.82158 9.99985L4.41085 14.4106C4.08541 14.736 4.08541 15.2637 4.41085 15.5891C4.73629 15.9145 5.26392 15.9145 5.58936 15.5891L10.0001 11.1784L14.4108 15.5891C14.7363 15.9145 15.2639 15.9145 15.5893 15.5891C15.9148 15.2637 15.9148 14.736 15.5893 14.4106L11.1786 9.99985L15.5894 5.58909C15.9148 5.26366 15.9148 4.73602 15.5894 4.41058C15.2639 4.08515 14.7363 4.08515 14.4109 4.41058L10.0001 8.82134L5.58934 4.41058Z" fill="#00B78E"/>
</svg>
