<svg width="20" height="20" viewBox="0 0 20 20" fill="none" xmlns="http://www.w3.org/2000/svg">
<path fill-rule="evenodd" clip-rule="evenodd" d="M15.0267 13.8479C16.053 12.5648 16.6667 10.9373 16.6667 9.1665C16.6667 5.02437 13.3089 1.6665 9.16675 1.6665C5.02461 1.6665 1.66675 5.02437 1.66675 9.1665C1.66675 13.3086 5.02461 16.6665 9.16675 16.6665C10.9376 16.6665 12.5651 16.0528 13.8482 15.0264L16.0775 17.2558C16.4029 17.5812 16.9306 17.5812 17.256 17.2558C17.5814 16.9303 17.5814 16.4027 17.256 16.0772L15.0267 13.8479ZM15.0001 9.1665C15.0001 12.3882 12.3884 14.9998 9.16675 14.9998C5.94509 14.9998 3.33341 12.3882 3.33341 9.1665C3.33341 5.94484 5.94509 3.33317 9.16675 3.33317C12.3884 3.33317 15.0001 5.94484 15.0001 9.1665Z" fill="#1E272E"/>
</svg>
