<svg width="24" height="24" viewBox="0 0 24 24" fill="none" xmlns="http://www.w3.org/2000/svg">
<path fill-rule="evenodd" clip-rule="evenodd" d="M3 6.66211C3 5.37082 3.82629 4.2244 5.05132 3.81606L11.0513 1.81606C11.6671 1.61079 12.3329 1.61079 12.9487 1.81606L18.9487 3.81606C20.1737 4.2244 21 5.37082 21 6.66211V11.9998C21 17.5018 15.4398 20.8416 13.0601 22.019C12.3875 22.3518 11.6125 22.3518 10.9399 22.019C8.56019 20.8416 3 17.5018 3 11.9998V6.66211ZM15 8.99988C15 10.6567 13.6569 11.9999 12 11.9999C10.3431 11.9999 9 10.6567 9 8.99988C9 7.34302 10.3431 5.99988 12 5.99988C13.6569 5.99988 15 7.34302 15 8.99988ZM12 13.9999C13.7944 13.9999 15.431 14.675 16.6698 15.7851C17.0352 16.1125 17.0409 16.6709 16.6998 17.0234C16.6392 17.086 16.5779 17.148 16.5157 17.2095C15.0429 18.6669 13.2698 19.6838 12.1732 20.2264C12.0595 20.2826 11.9405 20.2826 11.8269 20.2264C10.7303 19.6838 8.95721 18.6669 7.48435 17.2095C7.42218 17.148 7.36082 17.086 7.30031 17.0234C6.95912 16.6709 6.96487 16.1125 7.33023 15.7851C8.56904 14.675 10.2057 13.9999 12 13.9999Z" fill="white"/>
</svg>
