<svg width="24" height="24" viewBox="0 0 24 24" fill="none" xmlns="http://www.w3.org/2000/svg">
<path d="M19.2071 3.7929C18.8166 3.40237 18.1834 3.40237 17.7929 3.79289C17.4024 4.18341 17.4024 4.81658 17.7929 5.2071L18.5819 5.99615H15.7081C13.6636 5.99615 11.8251 7.24091 11.0657 9.1392L9.0773 14.1103C8.62171 15.2493 7.51858 15.9962 6.29187 15.9962H3C2.44772 15.9962 2 16.4439 2 16.9962C2 17.5484 2.44772 17.9962 3 17.9962H6.29187C8.33639 17.9962 10.1749 16.7514 10.9343 14.8531L12.9227 9.88198C13.3783 8.74301 14.4814 7.99615 15.7081 7.99615H18.5866L17.7929 8.78992C17.4024 9.18045 17.4024 9.81362 17.7929 10.2041C18.1834 10.5947 18.8166 10.5947 19.2071 10.2041L21.352 8.05916C21.9378 7.47337 21.9378 6.52363 21.352 5.93785L19.2071 3.7929Z" fill="white"/>
<path d="M12.9227 14.1181C13.3783 15.2571 14.4814 16.0039 15.7081 16.0039H18.5866L17.7929 15.2102C17.4024 14.8197 17.4024 14.1866 17.7929 13.796C18.1834 13.4055 18.8166 13.4055 19.2071 13.796L21.352 15.9409C21.9378 16.5267 21.9378 17.4765 21.352 18.0623L19.2071 20.2072C18.8166 20.5978 18.1834 20.5978 17.7929 20.2072C17.4024 19.8167 17.4024 19.1835 17.7929 18.793L18.582 18.0039H15.7081C13.6636 18.0039 11.8251 16.7591 11.0657 14.8609L9.0773 9.88973C8.62171 8.75076 7.51858 8.00391 6.29187 8.00391H3C2.44772 8.00391 2 7.55619 2 7.00391C2 6.45162 2.44772 6.00391 3 6.00391H6.29187C8.33639 6.00391 10.1749 7.24866 10.9343 9.14695L12.9227 14.1181Z" fill="white"/>
</svg>
