<svg width="20" height="20" viewBox="0 0 20 20" fill="none" xmlns="http://www.w3.org/2000/svg">
<path fill-rule="evenodd" clip-rule="evenodd" d="M6.35471 5.3128L7.00934 5.96743L9.34545 8.30354L10.0001 8.95817L10.6547 8.30354L12.9908 5.96743L13.6455 5.3128L12.9908 4.65724L10.6547 2.32113L10.0001 1.6665L9.34545 2.32113L7.00934 4.65724L6.35471 5.3128ZM12.3362 5.3128L10.0001 7.64799L7.66397 5.31187L10.0001 2.97576L12.3362 5.3128ZM6.35471 14.6869L7.00934 15.3424L9.34545 17.6785L10.0001 18.3332L10.6547 17.6785L12.9908 15.3424L13.6455 14.6878L12.9908 14.0322L10.6547 11.6961L10.0001 11.0415L9.34545 11.6961L7.00934 14.0322L6.35471 14.6869ZM12.3362 14.6869L10.0001 17.0248L7.66397 14.6887L10.0001 12.3498L12.3362 14.6869ZM2.32138 10.6545L1.66675 9.99984L2.32138 9.34521L4.65749 7.0091L5.31304 6.35447L5.96767 7.0091L8.30379 9.34521L8.95842 9.99984L8.30379 10.6545L5.96767 12.9906L5.31304 13.6452L4.65749 12.9906L2.32138 10.6545ZM5.31212 12.3359L7.65008 9.99984L5.31212 7.66373L2.97601 9.99984L5.31212 12.3359ZM11.0417 9.99984L11.6964 10.6545L14.0325 12.9906L14.6871 13.6452L15.3427 12.9906L17.6788 10.6545L18.3334 9.99984L17.6788 9.34521L15.3427 7.0091L14.688 6.35447L14.0325 7.0091L11.6964 9.34521L11.0417 9.99984ZM17.0232 9.99984L14.6871 12.3359L12.3519 9.99984L14.689 7.66373L17.0232 9.99984Z" fill="#F17C23"/>
</svg>
