<svg width="20" height="20" viewBox="0 0 20 20" fill="none" xmlns="http://www.w3.org/2000/svg">
<path fill-rule="evenodd" clip-rule="evenodd" d="M13.1312 1.6665C13.7943 1.6665 14.4301 1.9299 14.899 2.39874L17.6012 5.10094C18.07 5.56978 18.3334 6.20566 18.3334 6.8687V15.8332C18.3334 17.2139 17.2141 18.3332 15.8334 18.3332H4.16675C2.78604 18.3332 1.66675 17.2139 1.66675 15.8332V4.1665C1.66675 2.78579 2.78604 1.6665 4.16675 1.6665H13.1312ZM4.16675 16.6665H5.00008V13.3332C5.00008 12.4127 5.74627 11.6665 6.66675 11.6665H13.3334C14.2539 11.6665 15.0001 12.4127 15.0001 13.3332V16.6665H15.8334C16.2937 16.6665 16.6667 16.2934 16.6667 15.8332V6.8687C16.6667 6.64769 16.579 6.43573 16.4227 6.27945L14.1667 4.02353V5.83317C14.1667 6.75365 13.4206 7.49984 12.5001 7.49984H7.50008C6.57961 7.49984 5.83342 6.75365 5.83342 5.83317V3.33317L4.16675 3.33317C3.70651 3.33317 3.33341 3.70627 3.33341 4.1665V15.8332C3.33341 16.2934 3.70651 16.6665 4.16675 16.6665ZM7.50008 3.33317V5.83317H12.5001V3.35807C12.4345 3.34166 12.3666 3.33317 12.2979 3.33317L7.50008 3.33317ZM13.3334 16.6665H6.66675V13.3332H13.3334V16.6665Z" fill="white"/>
</svg>
