<svg width="20" height="20" viewBox="0 0 20 20" fill="none" xmlns="http://www.w3.org/2000/svg">
<path fill-rule="evenodd" clip-rule="evenodd" d="M4.16675 18.3334C2.78604 18.3334 1.66675 17.2141 1.66675 15.8334V9.44678C1.66675 8.73806 1.96755 8.06265 2.49434 7.58854L8.32767 2.33854C9.27843 1.48286 10.7217 1.48286 11.6725 2.33854L17.5058 7.58854C18.0326 8.06265 18.3334 8.73806 18.3334 9.44678V15.8334C18.3334 17.2141 17.2141 18.3334 15.8334 18.3334H4.16675ZM16.6667 9.44678V15.8334C16.6667 16.2936 16.2937 16.6667 15.8334 16.6667H13.3334V12.5C13.3334 11.1193 12.2141 10 10.8334 10H9.16675C7.78604 10 6.66675 11.1193 6.66675 12.5V16.6667H4.16675C3.70651 16.6667 3.33341 16.2936 3.33341 15.8334V9.44678C3.33341 9.21054 3.43368 8.9854 3.60928 8.82737L9.44261 3.57737C9.75953 3.29214 10.2406 3.29214 10.5576 3.57737L16.3909 8.82736C16.5665 8.9854 16.6667 9.21054 16.6667 9.44678ZM8.33342 16.6667V12.5C8.33342 12.0398 8.70651 11.6667 9.16675 11.6667H10.8334C11.2937 11.6667 11.6667 12.0398 11.6667 12.5V16.6667H8.33342Z" fill="#1E272E"/>
</svg>
