<svg width="32" height="32" viewBox="0 0 32 32" fill="none" xmlns="http://www.w3.org/2000/svg">
<path d="M15.9333 17.9526L22.2762 11.6096C22.7969 11.0889 22.7969 10.2447 22.2762 9.72402C21.7555 9.20332 20.9113 9.20332 20.3906 9.72402L14.0476 16.067L15.9333 17.9526Z" fill="#1E272E"/>
<path d="M11.0583 22.5058L8.40921 19.8567C8.40296 19.8506 8.39676 19.8446 8.39061 19.8384L4.94289 16.3907C4.42219 15.87 3.57797 15.87 3.05727 16.3907C2.53657 16.9114 2.53657 17.7556 3.05727 18.2763L6.50499 21.724C7.73657 22.9556 9.57145 23.2162 11.0583 22.5058Z" fill="#1E272E"/>
<path fill-rule="evenodd" clip-rule="evenodd" d="M28.9427 9.65713C29.4634 10.1778 29.4634 11.022 28.9427 11.5427L18.7617 21.7238C17.1996 23.2859 14.6669 23.2859 13.1048 21.7238L9.65713 18.2761C9.13643 17.7554 9.13643 16.9111 9.65713 16.3904C10.1778 15.8697 11.022 15.8697 11.5427 16.3904L14.9905 19.8382C15.5112 20.3589 16.3554 20.3589 16.8761 19.8382L27.0571 9.65713C27.5778 9.13643 28.422 9.13643 28.9427 9.65713Z" fill="#1E272E"/>
</svg>
