<svg width="21" height="20" viewBox="0 0 21 20" fill="none" xmlns="http://www.w3.org/2000/svg">
<path d="M12.875 14.1667H17.0417L15.8709 12.9958C15.7136 12.8386 15.5889 12.6519 15.5039 12.4464C15.4188 12.2409 15.375 12.0207 15.375 11.7983V9.16667C15.3752 8.13245 15.0547 7.12362 14.4577 6.27907C13.8608 5.43453 13.0167 4.7958 12.0417 4.45083V4.16667C12.0417 3.72464 11.8661 3.30072 11.5536 2.98816C11.241 2.67559 10.8171 2.5 10.375 2.5C9.93301 2.5 9.50909 2.67559 9.19653 2.98816C8.88397 3.30072 8.70837 3.72464 8.70837 4.16667V4.45083C6.76671 5.1375 5.37504 6.99 5.37504 9.16667V11.7992C5.37504 12.2475 5.19671 12.6783 4.87921 12.9958L3.70837 14.1667H7.87504M12.875 14.1667V15C12.875 15.663 12.6116 16.2989 12.1428 16.7678C11.674 17.2366 11.0381 17.5 10.375 17.5C9.712 17.5 9.07611 17.2366 8.60727 16.7678C8.13843 16.2989 7.87504 15.663 7.87504 15V14.1667M12.875 14.1667H7.87504" stroke="#1E272E" stroke-width="1.66667" stroke-linecap="round" stroke-linejoin="round"/>
</svg>
