<svg width="20" height="20" viewBox="0 0 20 20" fill="none" xmlns="http://www.w3.org/2000/svg">
<path d="M3.32132 17.6594L7.74074 16.7755C7.90207 16.7433 8.05023 16.664 8.16657 16.5476L13.7081 11.0061C14.0335 10.6806 14.0335 10.153 13.7081 9.82758L10.1725 6.29204C9.84709 5.96661 9.31945 5.96661 8.99401 6.29205L3.45252 11.8336C3.33619 11.9499 3.25689 12.0981 3.22463 12.2594L2.34074 16.6788C2.22412 17.2619 2.73822 17.776 3.32132 17.6594Z" fill="auto"/>
<path d="M16.827 4.35166L15.6485 3.17315C14.6722 2.19684 13.0893 2.19684 12.113 3.17315L11.2919 3.99422C10.9664 4.31966 10.9664 4.8473 11.2919 5.17273L14.8274 8.70827C15.1529 9.0337 15.6805 9.0337 16.0059 8.70827L16.827 7.8872C17.8033 6.91089 17.8033 5.32797 16.827 4.35166Z" fill="auto"/>
</svg>
