<svg width="20" height="20" viewBox="0 0 20 20" fill="none" xmlns="http://www.w3.org/2000/svg">
<path fill-rule="evenodd" clip-rule="evenodd" d="M4.16665 6.6665C3.70641 6.6665 3.33331 7.0396 3.33331 7.49984V15.8332C3.33331 17.2139 4.4526 18.3332 5.83331 18.3332H14.1666C15.5474 18.3332 16.6666 17.2139 16.6666 15.8332V7.49984C16.6666 7.0396 16.2936 6.6665 15.8333 6.6665H4.16665ZM7.49998 9.1665C7.96022 9.1665 8.33331 9.5396 8.33331 9.99984V14.9998C8.33331 15.4601 7.96022 15.8332 7.49998 15.8332C7.03974 15.8332 6.66665 15.4601 6.66665 14.9998V9.99984C6.66665 9.5396 7.03974 9.1665 7.49998 9.1665ZM13.3333 9.99984C13.3333 9.5396 12.9602 9.1665 12.5 9.1665C12.0397 9.1665 11.6666 9.5396 11.6666 9.99984V14.9998C11.6666 15.4601 12.0397 15.8332 12.5 15.8332C12.9602 15.8332 13.3333 15.4601 13.3333 14.9998V9.99984Z" fill="#E74C3C"/>
<path d="M3.33333 4.99984C2.8731 4.99984 2.5 4.62674 2.5 4.1665C2.5 3.70627 2.8731 3.33317 3.33333 3.33317H5.97559C6.31879 2.36218 7.24482 1.6665 8.33333 1.6665H11.6667C12.7552 1.6665 13.6812 2.36218 14.0244 3.33317H16.6667C17.1269 3.33317 17.5 3.70627 17.5 4.1665C17.5 4.62674 17.1269 4.99984 16.6667 4.99984H3.33333Z" fill="#E74C3C"/>
</svg>
